<?xml version="1.0" encoding="UTF-8"?>
<svg version="1.1" xmlns="http://www.w3.org/2000/svg" width="400" height="400">
<path d="M0 0 C132 0 264 0 400 0 C400 132 400 264 400 400 C268 400 136 400 0 400 C0 268 0 136 0 0 Z " fill="#000000" transform="translate(0,0)"/>
<path d="M0 0 C1.49840677 0.88486664 2.98107479 1.79761488 4.4375 2.75 C5.79875 3.554375 5.79875 3.554375 7.1875 4.375 C14.23303909 11.81195792 16.23440905 19.05726148 16.00927734 29.04980469 C15.15526463 45.2794487 6.06406598 57.58183631 -3.07250977 70.39233398 C-16.19991517 88.8417163 -22.30680616 105.11446631 -23.5625 127.75 C-19.98773156 125.09381227 -17.48059739 122.55999233 -15.03125 118.84765625 C-14.39219727 117.88537109 -13.75314453 116.92308594 -13.09472656 115.93164062 C-12.4240918 114.90232422 -11.75345703 113.87300781 -11.0625 112.8125 C-10.35834961 111.74580078 -9.65419922 110.67910156 -8.92871094 109.58007812 C-4.4224265 102.71587781 -0.08137021 95.76347074 4.1875 88.75 C11.71417125 76.41929255 19.7718971 64.5898788 30.4375 54.75 C32.10551783 53.0846856 33.77208977 51.41792216 35.4375 49.75 C49.98883803 35.45517594 67.65654611 24.44704859 88.56738281 24.50561523 C102.12478714 24.75649608 112.04855895 30.32579864 121.75 39.5625 C129.06332941 47.23512135 133.37756693 55.65222088 136.4375 65.75 C136.79585937 66.92433594 137.15421875 68.09867187 137.5234375 69.30859375 C138.8754645 74.87915461 138.81956671 80.48258912 138.8125 86.1875 C138.81306396 87.3331543 138.81362793 88.47880859 138.81420898 89.65917969 C138.70807666 97.92010255 137.70190732 105.43797796 135.41015625 113.359375 C134.51230413 116.48923702 133.90645377 119.53149621 133.4375 122.75 C138.26353083 119.70198053 142.59679172 116.21852352 146.97265625 112.5546875 C151.77324963 109.03983149 156.52053734 107.83883275 162.4375 108.75 C167.96840704 110.8212911 171.80661664 114.48823329 174.4375 119.75 C175.07439667 128.78140355 175.36801026 136.84577575 170.4375 144.75 C170.025 145.48347656 169.6125 146.21695313 169.1875 146.97265625 C160.39348806 161.53773853 144.5552174 170.52719985 128.4375 174.75 C127.80908203 174.92587646 127.18066406 175.10175293 126.53320312 175.28295898 C119.88341236 176.9839803 113.39921987 177.08225931 106.5625 177.0625 C105.45519531 177.07861328 104.34789062 177.09472656 103.20703125 177.11132812 C92.51417882 177.11761065 82.46525874 175.71390536 74.59375 167.92578125 C67.74376064 160.55642794 67.11713236 154.3835653 67.234375 144.4765625 C67.47857566 139.99641962 68.22740316 136.06097 69.4375 131.75 C63.01280292 135.92229567 59.09034728 140.51881098 55 146.9375 C53.87477135 148.64045652 52.74587108 150.3409928 51.61328125 152.0390625 C51.0713916 152.8527832 50.52950195 153.66650391 49.97119141 154.50488281 C46.77440119 159.18455216 43.16912426 163.48725732 39.4375 167.75 C38.31408203 169.03777344 38.31408203 169.03777344 37.16796875 170.3515625 C34.95487657 172.84741774 32.70236532 175.30116547 30.4375 177.75 C29.82648438 178.44996094 29.21546875 179.14992188 28.5859375 179.87109375 C18.49340706 190.88698335 2.92202272 197.71800534 -11.89575195 198.94287109 C-31.7059873 199.60649688 -47.25919816 196.77769007 -62.6875 183.5 C-79.92703736 167.28566205 -87.71176558 146.15406845 -88.68505859 122.81054688 C-88.7672437 119.66460079 -88.79711152 116.52194332 -88.8125 113.375 C-88.833125 112.32828125 -88.85375 111.2815625 -88.875 110.203125 C-88.9124747 102.6144989 -87.59176711 96.03299383 -85.5625 88.75 C-85.13189437 86.54434227 -84.71249726 84.33641344 -84.3125 82.125 C-78.89285324 56.75881826 -64.26503922 34.30964541 -46.5625 15.75 C-45.94246094 15.05519531 -45.32242188 14.36039063 -44.68359375 13.64453125 C-33.61348144 1.69620543 -16.05293365 -7.82189421 0 0 Z " fill="#F7F7F7" transform="translate(166.5625,96.25)"/>
<path d="M0 0 C4.04800651 2.09896634 6.34076279 3.76477808 8 8 C9.81148227 22.93884727 2.16908361 33.59868922 -6.0859375 45.25390625 C-21.3124458 67.09928448 -33.0688129 88.4471346 -30 116 C-28.89271175 121.14182255 -27.15989214 124.56719206 -23.875 128.625 C-19.54095391 130.69780465 -15.71279971 130.70395593 -11 130 C5.84187767 123.32132437 16.6101257 98.82342277 25.51953125 84.0859375 C39.41669278 61.12725401 56.96750519 40.68185232 82.08203125 29.83203125 C83.40465337 29.25826646 84.71049303 28.64475349 86 28 C96.9505065 27.26756481 106.95838696 26.85247625 115.71875 34.31640625 C125.41855411 43.66779785 130.40175678 53.80544709 131.19140625 67.26171875 C131.65044144 94.58961347 121.63972672 121.78840704 112 147 C110.56775836 147.01866666 109.13544585 147.03194429 107.703125 147.04296875 C106.50671387 147.05493286 106.50671387 147.05493286 105.28613281 147.06713867 C100.73591885 146.93350894 97.8716012 145.70062338 94.3515625 142.87109375 C91.36939916 139.23008036 91.44338535 137.39551152 91.625 132.75 C91.64353027 132.08613281 91.66206055 131.42226562 91.68115234 130.73828125 C91.80516312 127.12877616 92.13182141 123.57554481 92.625 120 C93.17503104 115.95116038 92.39056377 112.86267713 91 109 C90.67 108.01 90.34 107.02 90 106 C87.52869082 104.84478498 87.52869082 104.84478498 85 104 C84.67 103.67 84.34 103.34 84 103 C76.71995647 101.9562188 71.41761545 102.9942227 65.33984375 107.11328125 C58.50148708 112.62734848 53.87421412 119.52703562 49.12109375 126.828125 C36.33608355 145.94677746 22.31273535 161.56242155 0 169 C-14.6912748 170.24967668 -28.91919208 169.14744881 -41 160 C-55.49918672 147.73807652 -62.01549216 130.56755145 -64 112 C-64.32935494 106.65370022 -64.26060395 101.32618436 -64.06494141 95.97607422 C-64.01049948 94.31948429 -64.00523581 92.66137784 -64.01171875 91.00390625 C-63.59190243 75.78004091 -56.99413864 59.36278521 -50 46 C-49.57589844 45.12214844 -49.15179688 44.24429688 -48.71484375 43.33984375 C-40.64400514 27.36287752 -26.90193184 8.27131164 -10 1 C-6.78501861 -0.6074907 -3.48701742 -0.47314549 0 0 Z " fill="#020202" transform="translate(158,110)"/>
<path d="M0 0 C0.57013832 7.98193646 -1.67666523 12.40257842 -5.9375 19 C-12.11359184 25.97669634 -23.07283956 31.61104157 -32 34 C-34.78125 34.09375 -34.78125 34.09375 -37 34 C-35.63125844 27.04223041 -33.5466871 20.61396893 -31 14 C-30.31035156 13.98582031 -29.62070312 13.97164062 -28.91015625 13.95703125 C-17.91615387 13.39903662 -11.6750861 9.04271884 -3.84765625 1.57421875 C-2 0 -2 0 0 0 Z " fill="#0B0B0B" transform="translate(325,221)"/>
<path d="M0 0 C1.32 0.66 2.64 1.32 4 2 C-0.03113877 7.87874404 -4.47035403 12.50891698 -10 17 C-10.66 16.01 -11.32 15.02 -12 14 C-11.4225 13.773125 -10.845 13.54625 -10.25 13.3125 C-5.20960072 10.37226708 -2.72522533 4.96380329 0 0 Z " fill="#ECECEC" transform="translate(331,242)"/>
<path d="M0 0 C0.33 0 0.66 0 1 0 C1.12375 1.134375 1.2475 2.26875 1.375 3.4375 C1.58125 4.613125 1.7875 5.78875 2 7 C2.66 7.33 3.32 7.66 4 8 C4.66 7.01 5.32 6.02 6 5 C6.33 5.99 6.66 6.98 7 8 C4.6875 11.1875 4.6875 11.1875 2 14 C1.34 14 0.68 14 0 14 C0 9.38 0 4.76 0 0 Z " fill="#212121" transform="translate(143,210)"/>
<path d="M0 0 C0.66 0.66 1.32 1.32 2 2 C0.16172132 5.15133488 -1.75972706 8.11964908 -4 11 C-4.99 10.67 -5.98 10.34 -7 10 C-3.535 5.05 -3.535 5.05 0 0 Z " fill="#DEDEDE" transform="translate(203,241)"/>
<path d="M0 0 C1.32 0.66 2.64 1.32 4 2 C4 2.99 4 3.98 4 5 C1.69 5.66 -0.62 6.32 -3 7 C-1.125 2.25 -1.125 2.25 0 0 Z " fill="#F0F0F0" transform="translate(139,174)"/>
<path d="M0 0 C0.66 0.33 1.32 0.66 2 1 C0.625 3 0.625 3 -1 5 C-1.66 5 -2.32 5 -3 5 C-3 5.66 -3 6.32 -3 7 C-4.32 6.34 -5.64 5.68 -7 5 C-4.69 3.35 -2.38 1.7 0 0 Z " fill="#242424" transform="translate(230,144)"/>
<path d="M0 0 C0.33 0.66 0.66 1.32 1 2 C-0.5039544 4.79305817 -2.24016054 7.36024081 -4 10 C-4.66 9.67 -5.32 9.34 -6 9 C-4.02 6.03 -2.04 3.06 0 0 Z " fill="#2D2D2D" transform="translate(223,240)"/>
<path d="M0 0 C0.66 0.33 1.32 0.66 2 1 C0.6875 3.9375 0.6875 3.9375 -1 7 C-1.99 7.33 -2.98 7.66 -4 8 C-2.87548273 5.0280615 -1.77706209 2.66559313 0 0 Z " fill="#D5D5D5" transform="translate(99,139)"/>
<path d="M0 0 C0.66 0.33 1.32 0.66 2 1 C2 1.66 2 2.32 2 3 C0.37373596 4.38232443 -1.2925002 5.71937515 -3 7 C-3.66 6.67 -4.32 6.34 -5 6 C-3.35 4.02 -1.7 2.04 0 0 Z " fill="#D5D5D5" transform="translate(116,116)"/>
</svg>
